<svg xmlns="http://www.w3.org/2000/svg" viewBox="0 0 957 957"><defs><style>.cls-1{fill:#23a2f7;}.cls-2{fill:#fff;}.cls-3{fill:none;}</style></defs><title>logo_exercisor</title><g id="Layer_3" data-name="Layer 3"><circle class="cls-1" cx="478.5" cy="478.5" r="478.5"/></g><g id="Layer_1" data-name="Layer 1"><path class="cls-2" d="M177.63,499.88c53.46,0,61-29.36,61-55.72,0-21.08-3-42.17-6-63.25s-6-41.42-6-62.5c0-69.28,45.18-98.64,109.19-98.64h15.81v41.41H338c-44.43,0-59.49,24.1-59.49,64.76,0,17.32,2.26,35.39,5.27,53.46,3,18.83,5.27,36.9,5.27,57.23.76,48.19-20.33,72.29-54.21,81.33v1.5c33.88,8.29,55,33.89,54.21,82.08,0,20.33-2.26,39.16-5.27,57.23-3,18.82-5.27,36.14-5.27,54.21,0,42.17,17.32,65.52,59.49,65.52h13.55v41.41H335.76c-62.5,0-109.19-27.11-109.19-103.16,0-20.33,3-41.42,6-61.75s6-40.66,6-61c0-23.34-7.53-55.72-61-55.72Z" transform="translate(-51.52 -36.07)"/><path class="cls-2" d="M882.42,538.29c-53.46,0-61,32.38-61,55.72,0,20.33,3,40.66,6,61s6,41.42,6,61.75c0,76-47.44,103.16-109.19,103.16H708.48V778.5h12.8c42.17-.76,60.24-23.35,60.24-65.52,0-18.07-3-35.39-5.27-54.21-3-18.07-6-36.9-6-57.23,0-48.19,21.09-73.79,54.22-82.08V518c-33.13-9-54.22-33.14-54.22-81.33,0-20.33,3-38.4,6-57.23,2.26-18.07,5.27-36.14,5.27-53.46,0-40.66-15.81-64-59.49-64.76H708.48V219.77h15.06c64,0,109.94,29.36,109.94,98.64,0,21.08-3,41.42-6,62.5s-6,42.17-6,63.25c0,26.36,7.53,55.72,61,55.72Z" transform="translate(-51.52 -36.07)"/><rect class="cls-3" x="254.22" y="254.22" width="448.56" height="448.56"/></g><g id="Layer_2" data-name="Layer 2"><path class="cls-2" d="M716.92,431.12H548.71V468.5H716.92Zm0,149.52H548.71V618H716.92ZM409.29,505.88l-66.17-66.16,26.36-26.36L409.1,453l79.24-79.24,26.36,26.35Zm0,149.52-66.17-66.17,26.36-26.35L409.1,602.5l79.24-79.24,26.36,26.35Z" transform="translate(-51.52 -36.07)"/></g></svg>