<svg xmlns="http://www.w3.org/2000/svg" viewBox="0 0 1024 1024"><defs><style>.cls-1{fill:#23a2f7;}.cls-2{fill:#fff;}.cls-3{fill:none;}</style></defs><title>logo_exercisor_adaptive</title><g id="Layer_3" data-name="Layer 3"><rect class="cls-1" width="1024" height="1024"/></g><g id="Layer_1" data-name="Layer 1"><path class="cls-2" d="M220.19,495.79c44.25,0,50.49-24.31,50.49-46.12,0-17.45-2.5-34.91-5-52.36s-5-34.28-5-51.73c0-57.34,37.4-81.65,90.38-81.65h13.09v34.28H353c-36.78,0-49.24,20-49.24,53.6,0,14.34,1.87,29.3,4.36,44.26,2.5,15.58,4.36,30.54,4.36,47.37.63,39.89-16.82,59.83-44.87,67.31V512c28.05,6.85,45.5,28,44.87,67.93a283.79,283.79,0,0,1-4.36,47.37c-2.49,15.58-4.36,29.92-4.36,44.88,0,34.9,14.33,54.22,49.24,54.22h11.22v34.28H351.08c-51.73,0-90.38-22.43-90.38-85.38,0-16.83,2.5-34.29,5-51.11s5-33.66,5-50.49c0-19.32-6.24-46.12-50.49-46.12Z" transform="translate(0.12 -0.31)"/><path class="cls-2" d="M803.56,527.58c-44.25,0-50.48,26.8-50.48,46.12,0,16.83,2.49,33.66,5,50.49s5,34.28,5,51.11c0,63-39.27,85.38-90.38,85.38H659.58V726.4h10.6c34.9-.62,49.86-19.32,49.86-54.22,0-15-2.49-29.3-4.36-44.88-2.49-15-5-30.54-5-47.37,0-39.89,17.45-61.08,44.88-67.93v-1.25c-27.43-7.48-44.88-27.42-44.88-67.31,0-16.83,2.5-31.79,5-47.37,1.87-15,4.36-29.92,4.36-44.26,0-33.65-13.09-53-49.24-53.6H659.58V263.93h12.47c53,0,91,24.31,91,81.65,0,17.45-2.49,34.28-5,51.73s-5,34.91-5,52.36c0,21.81,6.23,46.12,50.48,46.12Z" transform="translate(0.12 -0.31)"/><rect class="cls-3" x="305.87" y="289.98" width="448.56" height="448.56"/></g><g id="Layer_2" data-name="Layer 2"><path class="cls-2" d="M666.58,443.23H527.35v30.94H666.58Zm0,123.76H527.35v30.94H666.58ZM411.94,505.11l-54.76-54.76L379,428.54l32.79,32.79,65.6-65.59,21.81,21.81Zm0,123.76-54.76-54.76L379,552.3l32.79,32.79,65.6-65.59,21.81,21.81Z" transform="translate(0.12 -0.31)"/></g></svg>