<svg xmlns="http://www.w3.org/2000/svg" viewBox="0 0 583.37 496.75"><defs><style>.cls-1{fill:#fff;}</style></defs><title>Asset 3</title><g id="Layer_2" data-name="Layer 2"><g id="Layer_1-2" data-name="Layer 1"><path class="cls-1" d="M0,231.86c44.25,0,50.49-24.31,50.49-46.12,0-17.45-2.5-34.91-5-52.36s-5-34.28-5-51.73C40.51,24.31,77.91,0,130.89,0H144V34.28H132.76c-36.78,0-49.24,19.95-49.24,53.6,0,14.34,1.87,29.3,4.36,44.26,2.5,15.58,4.37,30.54,4.37,47.36.62,39.89-16.83,59.84-44.88,67.32v1.24c28.05,6.86,45.5,28.05,44.88,67.94a283.77,283.77,0,0,1-4.37,47.37c-2.49,15.58-4.36,29.92-4.36,44.88,0,34.9,14.33,54.22,49.24,54.22H144v34.28H130.89c-51.73,0-90.38-22.43-90.38-85.39,0-16.82,2.5-34.28,5-51.11s5-33.65,5-50.48c0-19.32-6.24-46.12-50.49-46.12Z"/><path class="cls-1" d="M583.37,263.65c-44.25,0-50.48,26.8-50.48,46.12,0,16.83,2.49,33.66,5,50.48s5,34.29,5,51.11c0,63-39.27,85.39-90.38,85.39H439.39V462.47H450c34.9-.62,49.86-19.32,49.86-54.22,0-15-2.49-29.3-4.36-44.88-2.49-15-5-30.54-5-47.37,0-39.89,17.46-61.08,44.88-67.94v-1.24C508,239.34,490.5,219.39,490.5,179.5c0-16.82,2.5-31.78,5-47.36,1.87-15,4.36-29.92,4.36-44.26,0-33.65-13.09-53-49.24-53.6H439.39V0h12.47c53,0,91,24.31,91,81.65,0,17.45-2.49,34.28-5,51.73s-5,34.91-5,52.36c0,21.81,6.23,46.12,50.48,46.12Z"/></g><g id="Layer_2-2" data-name="Layer 2"><path class="cls-1" d="M446.39,179.3H307.16v30.94H446.39Zm0,123.76H307.16V334H446.39ZM191.75,241.18,137,186.42l21.81-21.81,32.8,32.79,65.59-65.59L279,153.62Zm0,123.76L137,310.18l21.81-21.81,32.8,32.79,65.59-65.59L279,277.38Z"/></g></g></svg>